<?xml version="1.0" standalone="no"?>
<!DOCTYPE svg PUBLIC "-//W3C//DTD SVG 20010904//EN"
 "http://www.w3.org/TR/2001/REC-SVG-20010904/DTD/svg10.dtd">
<svg version="1.0" xmlns="http://www.w3.org/2000/svg"
 width="2442.000000pt" height="2442.000000pt" viewBox="0 0 2442.000000 2442.000000"
 preserveAspectRatio="xMidYMid meet">
<metadata>
Created by potrace 1.14, written by Peter Selinger 2001-2017
</metadata>
<g transform="translate(0.000000,2442.000000) scale(0.100000,-0.100000)"
fill="#000000" stroke="none">
<path d="M14297 19203 c-4 -4 -51 -8 -105 -9 -168 -5 -259 -11 -271 -18 -6 -4
-11 -1 -11 6 0 9 -2 10 -8 2 -4 -7 -37 -14 -74 -17 -37 -3 -72 -8 -79 -12 -6
-4 -15 -1 -20 6 -5 8 -9 9 -9 4 0 -6 -15 -12 -32 -14 -18 -1 -49 -4 -68 -7
-19 -3 -54 -6 -77 -7 -22 -1 -39 -5 -36 -9 2 -5 -6 -8 -19 -8 -13 -1 -35 -1
-50 -1 -16 -1 -28 -4 -28 -8 0 -4 -16 -7 -35 -6 -19 0 -35 -2 -35 -6 0 -4 -8
-6 -17 -4 -10 1 -22 0 -28 -3 -5 -4 -19 -7 -30 -9 -18 -2 -62 -9 -105 -18 -8
-2 -15 -4 -15 -5 0 -2 -32 -8 -70 -14 -16 -3 -44 -9 -62 -15 -17 -5 -34 -7
-37 -3 -3 3 -6 0 -6 -6 0 -6 -8 -11 -17 -10 -10 0 -31 -3 -48 -7 -16 -4 -36
-8 -42 -8 -7 0 -13 -3 -13 -7 0 -4 -6 -7 -12 -7 -7 0 -33 -6 -58 -12 -25 -7
-52 -14 -60 -16 -8 -2 -17 -4 -20 -5 -3 -1 -9 -2 -14 -1 -4 1 -14 -4 -22 -10
-8 -6 -14 -8 -14 -4 0 4 -7 2 -15 -5 -8 -7 -15 -9 -15 -5 0 4 -7 2 -15 -5 -8
-7 -15 -10 -15 -7 0 3 -16 -1 -35 -9 -20 -8 -40 -12 -45 -9 -6 4 -10 2 -10 -3
0 -9 -55 -26 -72 -23 -5 0 -8 -3 -8 -9 0 -6 -3 -9 -7 -8 -12 3 -97 -23 -109
-33 -6 -5 -14 -6 -17 -2 -4 3 -7 1 -7 -5 0 -7 -3 -11 -7 -10 -11 3 -77 -19
-138 -46 -27 -12 -69 -28 -92 -36 -24 -7 -43 -17 -43 -22 0 -5 -4 -6 -10 -3
-5 3 -10 1 -10 -5 0 -6 -5 -8 -10 -5 -6 3 -24 -3 -40 -15 -17 -12 -30 -19 -30
-15 0 3 -10 0 -22 -7 -13 -7 -26 -11 -30 -10 -5 1 -8 -3 -8 -9 0 -5 -4 -8 -9
-4 -5 3 -15 -1 -23 -8 -7 -8 -18 -12 -24 -10 -7 2 -19 -3 -27 -12 -9 -8 -18
-15 -21 -15 -8 0 -180 -83 -186 -90 -3 -3 -12 -6 -20 -8 -8 -2 -23 -10 -32
-19 -9 -8 -22 -12 -27 -8 -6 3 -11 1 -11 -4 0 -6 -18 -19 -40 -28 -22 -10 -40
-21 -40 -26 0 -4 -4 -5 -10 -2 -5 3 -10 1 -10 -4 0 -6 -3 -10 -7 -10 -19 3
-34 -2 -29 -9 2 -4 -16 -16 -40 -27 -24 -11 -44 -23 -44 -27 0 -5 -4 -8 -9 -8
-13 0 -134 -72 -143 -85 -4 -5 -8 -6 -8 -2 0 4 -9 -1 -21 -12 -12 -11 -34 -25
-50 -31 -16 -7 -29 -16 -29 -21 0 -5 -7 -9 -15 -9 -8 0 -15 -4 -15 -10 0 -5
-7 -10 -15 -10 -8 0 -15 -4 -15 -10 0 -5 -6 -10 -13 -10 -7 0 -23 -9 -35 -20
-12 -11 -26 -20 -32 -20 -5 0 -10 -4 -10 -10 0 -5 -7 -10 -15 -10 -8 0 -15 -3
-15 -7 -1 -5 -25 -24 -55 -43 -30 -19 -55 -38 -55 -42 0 -5 -7 -8 -15 -8 -8 0
-15 -4 -15 -9 0 -5 -8 -12 -17 -15 -10 -3 -32 -19 -50 -36 -18 -16 -36 -30
-40 -30 -5 0 -16 -8 -24 -17 -23 -26 -59 -54 -59 -47 0 4 -10 -5 -21 -20 -12
-15 -23 -25 -26 -23 -2 3 -14 -5 -26 -17 -13 -11 -42 -37 -65 -56 -47 -38 -96
-82 -154 -137 -21 -20 -38 -33 -38 -30 0 6 -329 -322 -422 -422 -37 -39 -65
-71 -62 -71 2 0 -13 -17 -33 -39 -21 -21 -60 -66 -87 -100 -27 -33 -52 -58
-55 -55 -10 10 -8 59 3 66 6 4 6 11 -2 20 -9 11 -9 17 0 26 9 9 9 12 0 12 -14
0 -12 21 3 32 6 5 6 8 -1 8 -12 0 -13 68 -1 88 5 6 4 12 -1 12 -10 0 -9 30 2
48 4 6 3 12 -2 12 -11 0 -10 70 1 88 5 6 4 12 -1 12 -10 0 -9 30 2 48 4 6 3
12 -2 12 -11 0 -10 50 1 68 5 6 4 12 0 12 -5 0 -9 29 -8 65 0 36 4 65 8 65 4
0 3 8 -2 18 -14 26 -14 34 1 43 7 5 8 9 2 9 -12 0 -12 49 0 68 4 7 3 12 -1 12
-12 0 -10 134 2 142 7 5 6 8 -1 8 -11 0 -12 60 0 78 4 7 3 12 -2 12 -7 0 -9
44 -2 60 1 3 1 10 0 15 -8 34 -5 75 4 75 7 0 8 3 1 8 -12 8 -13 51 -2 70 5 6
4 12 0 12 -12 0 -10 134 2 142 7 5 6 8 -1 8 -11 0 -12 60 0 78 4 7 3 12 -2 12
-7 0 -9 44 -2 60 1 3 1 10 0 15 -8 34 -5 75 4 75 7 0 8 3 1 8 -12 8 -13 51 -2
70 5 6 4 12 -1 12 -12 0 -12 32 1 48 6 7 6 12 0 12 -11 0 -11 29 1 48 4 6 3
12 -2 12 -10 0 -10 100 1 117 4 6 2 15 -5 20 -20 12 -8347 10 -8351 -2 -1 -5
-2 -44 -1 -85 0 -44 -4 -78 -10 -82 -7 -5 -7 -8 -1 -8 13 0 13 -129 1 -149 -6
-9 -5 -12 0 -8 13 7 12 -453 0 -472 -6 -9 -5 -12 1 -8 12 7 11 -263 -1 -282
-6 -9 -5 -12 1 -8 12 8 11 -162 -1 -182 -6 -9 -5 -12 0 -8 13 7 12 -453 0
-472 -6 -9 -5 -12 1 -8 12 7 11 -263 -1 -282 -6 -9 -5 -12 0 -8 11 7 13 -422
2 -439 -4 -6 -4 -14 0 -18 4 -4 8 -16 8 -27 4 -51 3 -50 24 -39 11 6 20 7 20
2 0 -11 38 -13 45 -2 3 5 15 6 28 1 13 -5 30 -5 39 0 10 5 19 6 22 0 6 -10 77
-8 95 3 6 4 11 2 11 -3 0 -13 22 -10 32 4 5 6 8 6 8 -1 0 -12 60 -11 79 0 6 4
11 3 11 -2 0 -10 65 -10 75 0 4 4 17 3 29 -2 13 -4 29 -4 36 0 8 5 19 5 25 1
11 -10 61 -9 71 1 3 4 16 3 28 -2 12 -4 29 -4 38 1 10 5 19 6 22 0 6 -10 77
-8 95 3 6 4 11 3 11 -2 0 -8 42 -8 103 1 15 2 30 1 32 -3 6 -9 77 -6 94 4 6 4
11 3 11 -2 0 -10 50 -9 68 2 7 4 12 3 12 -1 0 -5 22 -9 50 -9 27 1 50 5 50 10
0 5 8 2 17 -5 15 -12 16 -12 8 1 -7 12 -6 13 6 4 15 -12 78 -12 97 0 7 4 12 3
12 -2 0 -10 50 -9 68 2 7 4 12 3 12 -2 0 -8 42 -8 103 1 15 2 30 1 32 -3 6 -9
77 -6 94 4 6 4 11 3 11 -2 0 -10 50 -9 68 2 7 4 12 3 12 -1 0 -5 22 -9 50 -9
27 1 50 5 50 10 0 5 8 2 17 -5 15 -12 16 -12 8 1 -7 12 -6 13 6 4 15 -12 78
-12 97 0 7 4 12 3 12 -1 0 -12 38 -14 45 -3 3 5 15 6 29 0 12 -4 29 -4 36 0 8
5 19 5 25 1 11 -10 61 -9 71 1 3 4 16 3 28 -2 13 -4 29 -4 36 0 8 5 19 6 25 2
15 -10 165 -8 165 2 0 5 6 4 13 -1 14 -11 57 -11 75 0 6 5 12 4 12 0 0 -12 38
-14 45 -3 3 5 15 6 28 1 13 -5 30 -5 39 0 10 5 19 6 22 0 6 -10 77 -8 95 3 6
4 11 2 11 -3 0 -13 22 -10 32 4 5 6 8 6 8 -1 0 -12 60 -11 79 0 6 4 11 3 11
-2 0 -10 65 -10 75 0 4 4 17 3 29 -2 13 -4 29 -4 36 0 8 5 19 5 25 1 11 -10
61 -9 71 1 3 4 16 3 28 -2 12 -4 29 -4 38 1 10 5 19 6 22 0 6 -10 77 -8 95 3
6 4 11 3 11 -2 0 -8 42 -8 103 1 15 2 30 1 32 -3 6 -9 77 -6 94 4 6 4 11 3 11
-2 0 -10 50 -9 68 2 7 4 12 3 12 -1 0 -5 22 -9 50 -9 27 1 50 5 50 10 0 5 8 2
17 -5 15 -12 16 -12 8 1 -7 12 -6 13 6 4 15 -12 78 -12 97 0 7 4 12 3 12 -2 0
-10 50 -9 68 2 7 4 12 3 12 -2 0 -8 42 -8 103 1 15 2 30 1 33 -4 5 -8 57 -5
73 5 5 4 12 3 15 -2 6 -10 67 -9 84 2 7 4 12 3 12 -3 0 -5 9 -8 20 -6 33 6 32
4 -74 -90 -37 -33 -91 -81 -119 -107 -29 -27 -55 -48 -59 -48 -5 0 -8 -7 -8
-15 0 -8 -6 -15 -12 -15 -7 0 -24 -12 -37 -25 -13 -14 -27 -25 -33 -25 -5 0
-6 -4 -3 -10 3 -5 2 -10 -3 -10 -5 0 -23 -13 -40 -29 -16 -16 -33 -27 -36 -24
-3 4 -6 -1 -6 -10 0 -9 -4 -17 -9 -17 -8 0 -46 -33 -137 -121 -16 -16 -36 -29
-43 -29 -7 0 -10 -4 -7 -8 3 -5 -8 -18 -24 -30 -29 -22 -105 -91 -187 -169
-24 -24 -46 -43 -49 -43 -3 0 -25 -19 -49 -42 -24 -24 -66 -63 -95 -88 -28
-25 -83 -75 -121 -111 -38 -37 -69 -64 -69 -62 0 3 -13 -8 -29 -24 -42 -42
-102 -95 -135 -121 -16 -12 -25 -22 -21 -22 4 0 -15 -18 -44 -41 -28 -22 -51
-45 -51 -50 0 -5 -7 -9 -16 -9 -8 0 -12 -4 -9 -10 3 -5 2 -10 -4 -10 -5 0 -31
-20 -58 -45 -26 -25 -51 -45 -55 -45 -5 0 -8 -7 -8 -16 0 -8 -4 -13 -9 -10 -5
3 -17 -6 -27 -19 -10 -14 -25 -25 -32 -25 -7 0 -10 -4 -7 -10 3 -5 2 -10 -4
-10 -6 0 -25 -15 -44 -32 -18 -18 -66 -62 -106 -98 -108 -96 -188 -170 -237
-217 -24 -22 -44 -40 -44 -37 0 2 -23 -19 -51 -46 -28 -28 -56 -50 -61 -50 -5
0 -6 -4 -3 -10 3 -5 2 -10 -4 -10 -9 0 -39 -26 -165 -142 -22 -21 -44 -38 -48
-38 -4 0 -8 -7 -8 -15 0 -8 -6 -15 -12 -15 -19 0 -113 -100 -102 -108 5 -4 10
-16 12 -27 4 -29 7 -39 15 -52 5 -7 5 -17 2 -23 -3 -5 -1 -10 5 -10 7 0 10 -7
6 -15 -3 -8 -2 -15 2 -15 4 0 8 -8 9 -17 3 -41 8 -63 13 -63 4 0 7 -6 7 -12 0
-7 6 -33 12 -58 7 -25 13 -56 15 -70 2 -13 8 -26 13 -27 6 -2 8 -15 5 -28 -2
-14 0 -25 4 -25 5 0 10 -11 10 -25 1 -14 5 -33 9 -43 11 -25 16 -40 29 -110 3
-12 8 -26 11 -32 3 -5 8 -22 10 -37 3 -16 16 -66 29 -113 14 -47 28 -101 31
-120 3 -19 11 -40 17 -47 6 -7 7 -13 3 -13 -4 0 -2 -7 5 -15 10 -12 10 -15 0
-15 -10 0 -10 -3 -1 -14 7 -8 14 -27 17 -43 2 -15 7 -35 11 -43 3 -8 8 -24 10
-35 2 -11 6 -27 10 -35 3 -8 7 -22 7 -32 1 -9 4 -19 8 -23 4 -4 4 -13 1 -21
-3 -8 0 -14 7 -14 6 0 9 -4 5 -9 -3 -5 -1 -12 3 -15 5 -3 8 -17 7 -31 -2 -14
1 -25 7 -25 6 0 8 -9 5 -20 -3 -11 -1 -20 5 -20 5 0 6 -4 3 -10 -3 -5 -3 -10
2 -10 7 0 11 -18 16 -72 1 -10 4 -18 7 -18 3 0 7 -12 8 -26 1 -14 5 -31 9 -37
4 -7 9 -23 11 -37 3 -25 42 -74 42 -54 0 7 18 8 50 4 33 -4 50 -3 50 4 0 6 5
4 10 -4 5 -8 10 -10 10 -4 0 7 17 8 50 4 33 -4 50 -3 50 4 0 6 5 4 10 -4 5 -8
10 -10 10 -4 0 7 17 8 50 4 33 -4 50 -3 50 4 0 6 5 4 10 -4 5 -8 10 -10 10 -4
0 7 17 8 50 4 33 -4 50 -3 50 4 0 6 5 4 10 -4 5 -8 10 -10 10 -4 0 7 17 8 50
4 33 -4 50 -3 50 4 0 6 5 4 10 -4 5 -8 10 -10 10 -4 0 7 17 8 50 4 33 -4 50
-3 50 4 0 6 5 4 10 -4 5 -8 10 -10 10 -4 0 7 17 8 50 4 33 -4 50 -3 50 4 0 6
5 4 10 -4 5 -8 10 -10 10 -4 0 7 17 8 50 4 33 -4 50 -3 50 4 0 6 5 4 10 -4 5
-8 10 -10 10 -4 0 7 17 8 50 4 33 -4 50 -3 50 4 0 6 5 4 10 -4 5 -8 10 -10 10
-4 0 7 17 8 50 4 28 -4 50 -3 50 0 0 4 18 4 40 0 22 -4 40 -4 40 0 0 4 18 4
40 0 22 -4 40 -4 40 0 0 4 18 4 40 0 23 -4 40 -3 40 2 0 5 4 6 10 3 5 -3 55
-7 110 -9 55 -2 103 -6 107 -10 3 -3 12 -1 20 5 7 6 13 7 13 2 0 -5 12 -10 28
-10 76 -3 130 -8 127 -13 -1 -3 27 -6 63 -8 37 -2 69 -6 72 -10 3 -4 16 -8 30
-8 25 -1 59 -7 115 -20 17 -3 36 -7 43 -7 6 0 12 -3 12 -6 0 -3 10 -7 23 -8
23 -2 60 -10 65 -13 1 -2 5 -3 10 -4 4 -1 12 -4 17 -7 6 -4 20 -5 32 -4 12 1
20 -2 18 -5 -3 -4 17 -13 43 -21 26 -7 65 -21 87 -30 21 -10 42 -16 46 -13 4
2 9 -3 13 -11 3 -8 14 -15 23 -15 10 0 28 -7 39 -15 12 -8 24 -11 28 -8 3 3 6
-1 6 -10 0 -10 5 -14 15 -11 8 4 15 2 15 -2 0 -5 17 -17 38 -27 55 -26 158
-106 227 -175 83 -83 118 -122 109 -122 -4 0 2 -8 12 -17 10 -10 20 -24 22
-32 1 -7 9 -20 17 -28 8 -8 15 -21 15 -29 0 -8 5 -14 11 -14 5 0 7 -4 4 -10
-3 -5 -1 -10 4 -10 6 0 11 -9 11 -20 0 -11 4 -20 10 -20 5 0 7 -7 4 -15 -4 -8
-1 -15 6 -15 7 0 10 -8 7 -20 -3 -11 0 -23 5 -27 7 -4 8 -1 3 7 -5 9 -4 11 4
6 6 -4 9 -12 5 -17 -3 -6 -1 -22 5 -37 6 -15 13 -38 15 -52 3 -14 5 -25 6 -25
2 0 8 -49 15 -112 3 -29 5 -56 6 -60 1 -5 1 -10 0 -13 -1 -3 -3 -58 -4 -122
-1 -65 -5 -118 -8 -118 -4 0 -5 -13 -4 -30 1 -16 0 -30 -4 -30 -4 0 -8 -10 -9
-22 -2 -26 -9 -62 -12 -65 -2 -2 -3 -6 -4 -10 -1 -5 -9 -30 -19 -58 -9 -27
-17 -54 -16 -59 0 -5 -6 -13 -15 -18 -8 -5 -13 -15 -10 -23 4 -8 1 -15 -6 -15
-6 0 -9 -4 -5 -9 3 -6 -3 -14 -12 -20 -10 -6 -15 -11 -11 -11 8 0 -47 -95 -67
-116 -5 -6 -23 -28 -40 -49 -39 -50 -54 -65 -66 -65 -6 0 -8 -3 -6 -7 2 -5 -7
-18 -20 -30 -13 -12 -23 -19 -23 -16 0 4 -8 -2 -19 -13 -29 -30 -65 -59 -74
-59 -4 0 -11 -4 -15 -10 -4 -5 -16 -15 -27 -21 -51 -28 -71 -40 -85 -51 -8 -6
-19 -13 -25 -14 -36 -8 -45 -12 -45 -20 0 -5 -9 -9 -19 -9 -11 0 -23 -5 -26
-10 -4 -6 -11 -8 -16 -5 -5 4 -12 -1 -15 -9 -3 -9 -9 -14 -13 -12 -6 4 -122
-31 -171 -51 -8 -3 -26 -7 -40 -8 -14 -1 -25 -4 -25 -5 0 -1 -11 -4 -25 -5
-14 -1 -32 -5 -40 -8 -8 -4 -35 -9 -60 -11 -25 -2 -45 -5 -45 -6 0 -12 -439
-29 -451 -17 -3 3 -17 2 -30 -3 -13 -5 -24 -6 -24 -2 0 4 -28 8 -63 10 -108 6
-122 7 -136 16 -10 7 -12 6 -6 -4 6 -10 4 -11 -6 -4 -8 5 -27 10 -44 11 -32 2
-100 11 -100 13 0 1 -12 4 -28 6 -15 2 -39 6 -55 8 -15 2 -27 5 -27 6 0 3 -38
9 -67 12 -16 1 -28 5 -28 9 0 4 -12 7 -26 7 -15 0 -30 6 -35 13 -5 9 -9 10 -9
2 0 -8 -17 -5 -52 8 -29 10 -62 19 -73 19 -12 0 -25 4 -30 9 -6 4 -32 14 -60
21 -27 7 -58 19 -69 26 -10 7 -25 10 -32 7 -8 -3 -14 0 -14 6 0 6 -8 11 -17
11 -10 0 -31 7 -47 15 -15 8 -32 13 -36 10 -5 -3 -10 0 -12 5 -2 6 -10 12 -18
14 -8 1 -29 10 -47 19 -18 9 -39 17 -48 17 -8 0 -15 5 -15 11 0 5 -4 8 -9 5
-5 -3 -14 1 -21 9 -7 8 -18 15 -24 15 -18 0 -66 24 -66 33 0 4 -9 7 -20 7 -11
0 -20 5 -20 10 0 6 -6 10 -14 10 -7 0 -30 11 -50 25 -20 13 -36 22 -36 19 0
-3 -13 4 -29 15 -16 12 -34 21 -40 21 -6 0 -11 5 -11 10 0 6 -6 10 -13 10 -7
0 -23 9 -34 19 -12 11 -24 17 -27 14 -3 -4 -6 -1 -6 6 0 7 -4 9 -10 6 -5 -3
-10 -2 -10 3 0 5 -12 15 -27 23 -16 8 -30 16 -33 19 -3 3 -27 21 -55 40 -27
19 -52 38 -53 42 -2 4 -9 8 -15 8 -12 0 -43 23 -100 73 -17 15 -35 27 -40 27
-4 0 -19 10 -31 23 -13 12 -39 33 -57 47 -33 25 -74 59 -110 93 -10 9 -23 17
-29 17 -5 0 -10 7 -10 15 0 8 -5 15 -10 15 -6 0 -24 13 -40 29 -17 15 -41 37
-54 47 -14 10 -23 21 -20 26 3 4 0 8 -7 8 -6 0 -26 16 -44 34 -18 19 -35 32
-39 29 -3 -4 -6 -1 -6 6 0 7 -7 19 -15 27 -8 9 -15 13 -15 11 0 -7 -70 64 -71
71 0 4 -13 17 -29 30 l-29 23 -301 -299 c-165 -164 -300 -296 -300 -295 0 2
-11 -8 -25 -23 -14 -15 -25 -31 -25 -36 0 -5 -3 -8 -7 -6 -5 2 -22 -11 -40
-29 -17 -18 -30 -33 -28 -33 3 0 -27 -29 -64 -64 -38 -36 -66 -67 -63 -70 3
-3 -2 -6 -12 -6 -9 0 -14 -4 -11 -10 3 -5 2 -10 -3 -10 -14 0 -62 -47 -55 -54
4 -3 1 -6 -6 -6 -6 0 -32 -21 -56 -47 -25 -26 -45 -42 -45 -37 0 5 -8 -5 -16
-23 -9 -18 -19 -31 -23 -30 -3 1 -61 -53 -128 -121 -67 -67 -126 -122 -132
-122 -6 0 -10 -3 -9 -8 4 -11 -44 -62 -54 -56 -4 3 -8 1 -8 -4 0 -12 -90 -102
-101 -102 -5 0 -9 -4 -9 -8 0 -12 -138 -150 -144 -144 -4 3 -6 -2 -6 -12 0 -9
-5 -14 -10 -11 -6 3 -10 0 -10 -8 0 -7 -11 -20 -25 -27 -13 -7 -23 -16 -22
-19 2 -3 -23 -31 -55 -62 -32 -30 -58 -54 -58 -53 0 2 -11 -8 -25 -22 -14 -14
-25 -30 -25 -36 0 -6 -3 -9 -6 -6 -6 7 -114 -100 -114 -113 0 -6 -6 -7 -13 -3
-6 4 4 -11 23 -33 19 -23 41 -42 48 -42 6 -1 12 -6 12 -12 0 -17 266 -275 446
-434 31 -27 68 -60 81 -72 13 -13 26 -23 28 -23 6 0 55 -41 74 -62 8 -10 19
-18 23 -18 8 0 45 -29 80 -63 10 -9 20 -17 23 -17 6 0 24 -14 56 -42 10 -10
23 -18 29 -18 5 0 10 -5 10 -11 0 -5 4 -8 9 -5 5 3 11 -1 15 -9 3 -8 11 -15
17 -15 6 0 20 -10 30 -22 11 -11 19 -18 19 -14 0 4 6 1 14 -6 7 -7 24 -20 36
-28 12 -8 29 -21 36 -28 8 -7 14 -10 14 -5 0 4 4 4 8 -2 10 -15 101 -75 112
-75 6 0 10 -4 10 -10 0 -5 4 -10 10 -10 9 0 123 -70 148 -90 6 -6 12 -7 12 -3
0 4 4 3 8 -2 4 -6 18 -16 32 -23 56 -29 85 -45 90 -51 3 -3 37 -22 75 -41 39
-19 72 -37 75 -40 7 -7 198 -101 205 -101 3 1 34 -15 70 -34 36 -19 65 -32 65
-29 0 3 12 -1 28 -10 26 -14 122 -59 132 -61 49 -14 60 -19 60 -26 0 -5 7 -6
15 -3 8 4 15 1 15 -5 0 -6 3 -10 8 -9 10 3 114 -32 128 -43 6 -5 14 -6 17 -2
4 3 7 2 7 -4 0 -5 6 -10 13 -11 12 -1 47 -9 57 -12 3 -1 8 -2 13 -1 4 0 7 -3
7 -7 0 -4 8 -8 18 -9 9 -1 31 -7 47 -14 17 -7 32 -13 35 -13 3 -1 11 -5 19
-10 10 -6 12 -5 7 2 -4 6 5 5 20 -3 15 -8 31 -12 36 -9 4 3 8 0 8 -5 0 -6 8
-11 18 -11 9 0 36 -7 60 -15 24 -9 48 -13 53 -10 5 4 9 1 9 -4 0 -6 14 -11 30
-11 17 0 30 -5 30 -12 0 -6 3 -9 6 -5 3 3 27 -1 54 -9 26 -8 59 -15 74 -16 14
-1 26 -7 26 -12 0 -5 3 -7 6 -4 3 4 20 2 37 -3 18 -6 44 -12 60 -14 15 -2 33
-8 40 -12 6 -4 22 -6 35 -4 13 1 28 -2 35 -7 7 -5 19 -9 27 -10 8 0 35 -4 60
-8 25 -4 51 -7 58 -7 6 0 12 -3 12 -7 0 -4 6 -7 13 -7 6 0 32 -4 57 -7 58 -9
107 -16 145 -21 17 -2 30 -4 30 -5 0 -4 44 -10 83 -12 23 -1 42 -5 42 -8 0 -3
26 -6 57 -8 31 -1 61 -6 66 -11 5 -5 24 -5 43 -1 19 4 36 5 39 0 4 -7 21 -9
112 -13 23 -1 45 -5 49 -9 4 -4 13 -3 21 3 7 6 13 8 13 3 0 -5 35 -11 77 -13
128 -5 131 -6 138 -13 4 -4 16 -3 26 3 14 7 19 6 19 -3 0 -9 3 -9 12 0 6 6 18
8 27 4 9 -4 95 -7 191 -7 105 0 178 -4 182 -10 5 -7 8 -7 8 0 0 6 67 10 180
10 99 0 180 4 180 9 0 5 6 3 13 -3 8 -6 17 -8 20 -4 4 3 35 8 70 10 34 2 68 5
75 8 6 2 12 -1 12 -8 0 -9 2 -9 8 0 4 7 16 12 27 12 65 -1 198 15 216 27 8 5
9 3 4 -5 -6 -10 -3 -11 15 -1 12 6 28 9 36 6 8 -3 14 -2 14 2 0 4 22 8 48 8
27 0 54 4 60 8 7 4 26 8 42 8 17 1 30 4 30 7 0 3 15 7 33 7 58 3 122 16 129
28 5 7 8 6 8 -4 0 -9 3 -11 8 -5 4 6 18 10 32 10 14 0 30 3 35 6 6 4 26 10 45
13 34 7 60 13 70 16 3 1 8 2 13 1 4 0 7 5 7 12 0 8 4 7 10 -3 5 -8 10 -10 10
-5 0 6 8 12 18 13 19 2 54 9 62 13 3 1 10 3 15 4 6 2 13 4 18 5 4 1 12 4 17 5
6 1 12 4 15 5 7 4 15 5 58 14 20 5 37 12 37 18 0 5 5 6 10 3 6 -3 16 -3 23 2
12 8 28 12 59 15 10 1 20 8 23 16 3 7 9 11 14 7 5 -3 39 6 75 19 36 14 66 22
66 19 0 -3 8 1 18 9 9 8 45 23 80 34 34 10 62 22 62 26 0 5 5 8 10 8 6 0 27 8
48 17 20 9 42 18 47 19 30 6 55 17 55 25 0 5 6 9 13 9 7 0 29 9 49 19 19 11
39 17 42 14 3 -4 6 -2 6 4 0 9 9 14 45 22 6 1 14 9 18 17 4 8 15 14 23 14 15
0 73 28 84 41 3 3 20 12 38 20 17 8 32 18 32 22 0 5 5 5 10 2 6 -3 10 -2 10 3
0 5 8 12 18 15 18 6 73 38 82 47 3 3 26 18 53 33 26 15 47 32 47 38 0 6 4 8 9
5 4 -3 19 3 31 14 13 11 26 20 30 20 3 0 15 8 26 17 10 10 36 29 56 43 21 14
38 28 38 33 0 4 7 7 15 7 8 0 19 8 24 19 6 10 22 22 36 25 14 4 23 11 20 16
-3 5 4 11 15 15 11 3 20 10 20 15 0 5 9 12 20 15 11 4 18 11 15 16 -4 5 -1 9
4 9 6 0 19 8 30 17 10 10 49 45 86 78 69 61 186 175 179 175 -2 0 21 25 51 56
30 30 67 72 82 92 16 20 38 46 51 58 12 12 22 26 22 32 0 6 10 18 22 26 12 9
18 16 13 16 -5 0 0 7 11 15 10 8 15 15 11 15 -4 0 2 10 15 23 13 13 43 54 68
92 25 39 49 75 55 81 5 6 19 27 30 47 11 21 23 36 27 35 9 -4 138 -178 138
-187 0 -3 9 -13 20 -21 11 -8 20 -18 20 -23 0 -4 11 -19 24 -32 14 -13 27 -34
31 -45 4 -11 11 -18 16 -15 5 4 9 -1 9 -9 0 -8 9 -20 20 -26 11 -6 20 -17 20
-24 0 -8 7 -17 16 -20 8 -3 13 -9 11 -13 -6 -10 19 -34 27 -26 3 4 6 0 6 -8 1
-8 19 -32 40 -54 22 -22 40 -43 40 -46 0 -3 25 -31 55 -63 30 -31 55 -61 55
-66 0 -6 7 -10 15 -10 8 0 15 -5 15 -11 0 -12 267 -278 385 -384 43 -38 90
-81 104 -94 14 -13 43 -37 65 -55 21 -17 43 -36 50 -41 6 -6 34 -28 61 -50 28
-22 54 -46 58 -52 4 -7 13 -13 20 -13 7 0 25 -13 40 -30 16 -16 34 -30 41 -30
6 0 18 -9 26 -20 8 -11 19 -20 25 -20 5 0 24 -12 40 -26 27 -23 109 -82 153
-109 9 -5 25 -18 36 -27 11 -10 32 -24 48 -30 15 -7 28 -16 28 -20 0 -5 7 -8
15 -8 9 0 18 -7 21 -15 4 -8 10 -13 14 -10 4 2 15 -4 25 -15 10 -11 22 -20 26
-20 4 0 28 -13 52 -30 25 -16 50 -30 56 -30 6 0 11 -4 11 -9 0 -5 8 -11 18
-15 9 -3 31 -15 47 -26 17 -11 41 -25 55 -32 14 -7 28 -16 31 -21 3 -5 10 -9
15 -9 21 -2 44 -11 44 -17 0 -4 16 -13 35 -21 19 -8 35 -17 35 -22 0 -4 9 -8
20 -8 11 0 20 -4 20 -10 0 -5 7 -10 15 -10 8 0 15 -4 15 -9 0 -10 -52 -46 -62
-43 -5 1 -8 -3 -8 -9 0 -5 -4 -8 -9 -5 -5 3 -12 -1 -15 -10 -3 -8 -10 -13 -15
-9 -6 3 -13 0 -18 -7 -4 -7 -21 -20 -38 -28 -16 -8 -32 -18 -35 -21 -3 -3 -17
-12 -32 -20 -15 -8 -57 -32 -94 -53 -38 -22 -74 -39 -81 -39 -7 0 -13 -4 -13
-8 0 -7 -63 -40 -77 -40 -5 0 -17 -9 -29 -20 -11 -10 -24 -16 -27 -12 -4 3 -7
1 -7 -6 0 -7 -4 -10 -9 -6 -5 3 -16 -2 -24 -10 -9 -8 -23 -15 -31 -15 -9 0
-16 -5 -16 -12 0 -6 -3 -9 -6 -5 -4 3 -21 -1 -38 -10 -17 -10 -34 -16 -38 -15
-5 1 -8 -3 -8 -10 0 -6 -3 -8 -6 -5 -4 3 -16 0 -26 -8 -11 -7 -27 -11 -36 -8
-10 4 -13 2 -8 -5 4 -7 2 -12 -6 -12 -7 0 -25 -6 -40 -14 -15 -8 -40 -17 -57
-21 -17 -4 -31 -11 -31 -17 0 -6 -3 -8 -7 -5 -3 4 -12 2 -20 -4 -7 -6 -13 -9
-13 -6 0 4 -20 -2 -44 -13 -24 -10 -47 -16 -50 -13 -3 4 -6 1 -6 -6 0 -7 -4
-10 -9 -7 -4 3 -15 0 -24 -7 -13 -10 -11 -16 19 -43 18 -17 35 -29 37 -27 2 1
10 -8 17 -22 7 -13 21 -27 30 -30 9 -3 23 -16 30 -30 7 -14 21 -27 32 -31 10
-3 18 -10 18 -15 0 -5 4 -9 9 -9 5 0 32 -22 60 -50 28 -27 53 -50 55 -50 3 0
16 -10 29 -22 39 -38 82 -74 87 -73 3 0 25 -19 49 -42 23 -24 46 -43 49 -43 4
0 21 -14 39 -30 18 -17 37 -30 42 -30 6 0 11 -4 11 -8 0 -5 20 -23 45 -41 24
-17 51 -39 60 -47 8 -9 15 -12 15 -9 0 4 16 -9 35 -28 20 -20 45 -39 55 -42
11 -4 20 -11 20 -16 0 -6 5 -7 10 -4 6 3 10 -1 10 -10 0 -9 5 -13 10 -10 6 3
10 1 10 -6 0 -7 3 -10 6 -6 5 5 33 -16 70 -51 8 -7 14 -10 14 -5 0 4 4 3 8 -2
4 -6 25 -24 47 -42 38 -29 41 -30 65 -14 13 9 32 23 41 31 9 8 29 24 45 35 15
11 36 28 46 38 10 9 18 14 18 10 0 -5 4 -3 8 2 14 19 102 86 102 78 1 -4 7 3
15 17 8 14 14 21 15 17 0 -5 6 -2 14 5 8 7 26 22 42 33 15 11 33 26 40 32 7 7
18 13 24 13 6 0 8 5 5 10 -3 6 -1 10 5 10 6 0 22 11 36 25 13 13 28 25 32 25
4 0 23 16 44 35 20 19 39 35 42 35 7 0 54 39 75 63 8 9 20 17 25 17 5 0 22 14
38 30 15 17 32 30 38 30 5 0 14 8 19 18 6 9 11 14 11 10 0 -4 20 11 44 33 24
23 47 40 51 39 4 -1 16 11 26 27 10 15 19 24 19 19 0 -5 9 1 20 14 11 13 20
21 20 18 0 -3 24 17 54 44 30 27 57 49 60 49 4 -1 22 15 40 34 19 19 39 35 45
35 6 0 11 7 11 16 0 8 4 13 9 10 5 -3 11 1 14 9 6 14 23 14 67 -3 14 -5 31 -7
38 -5 6 3 12 -1 12 -8 0 -7 3 -10 6 -6 3 3 26 -1 52 -8 25 -8 49 -12 54 -9 4
3 8 1 8 -3 0 -5 8 -10 18 -11 23 -2 57 -10 57 -13 0 -1 11 -3 25 -4 14 -1 32
-5 41 -9 9 -4 27 -8 40 -10 13 -2 32 -7 41 -11 9 -4 22 -4 28 0 5 3 10 1 10
-5 0 -6 5 -8 10 -5 6 3 15 3 21 -1 12 -7 59 -14 111 -17 14 -1 24 -5 22 -9 -3
-4 4 -7 13 -7 21 1 98 -9 98 -12 0 -1 9 -3 20 -4 47 -6 132 -18 155 -22 14 -3
44 -5 68 -6 23 -1 42 -5 42 -9 0 -4 15 -7 33 -7 40 0 162 -8 162 -11 0 -3 137
-11 207 -13 31 -1 55 -4 53 -7 -4 -7 43 -5 50 2 3 3 21 2 39 -2 18 -4 41 -3
50 2 9 5 16 5 16 1 0 -9 143 -8 166 1 8 3 14 2 14 -2 0 -7 45 -8 60 -2 3 1 10
1 15 0 13 -3 159 1 255 6 128 7 205 12 208 15 8 6 28 3 34 -6 5 -7 8 -7 8 0 0
6 17 12 38 14 20 2 53 4 72 6 19 1 35 3 35 4 0 3 76 12 131 15 28 2 55 6 61 9
6 4 30 9 54 12 24 2 56 6 70 9 21 3 29 -1 38 -20 7 -16 7 -24 0 -24 -6 0 -6
-6 0 -17 5 -10 11 -36 14 -58 3 -22 10 -41 15 -43 5 -1 7 -14 4 -27 -2 -15 0
-25 7 -25 6 0 11 -9 11 -20 0 -19 37 -109 49 -120 3 -3 7 -10 8 -17 3 -14 51
-90 78 -122 34 -40 115 -120 115 -114 0 4 14 -6 30 -22 16 -16 30 -25 30 -19
0 5 7 1 14 -9 8 -10 16 -18 18 -18 13 2 48 -13 48 -20 0 -5 7 -6 15 -3 8 4 15
1 15 -5 0 -6 11 -11 25 -11 14 0 25 -4 25 -9 0 -5 19 -12 43 -16 54 -10 50 -9
62 -16 6 -4 19 -5 30 -3 10 1 24 -1 30 -5 9 -7 83 -7 252 2 24 1 43 5 43 8 0
4 17 9 38 12 56 9 66 12 81 21 10 7 12 5 6 -5 -5 -8 0 -7 12 4 11 9 23 14 26
10 4 -3 7 -1 7 6 0 7 4 10 9 7 9 -6 120 30 139 46 6 6 12 8 12 5 0 -3 28 9 63
26 34 17 68 32 76 33 8 2 17 8 21 14 4 7 9 11 11 10 6 -2 43 13 49 19 9 10 64
42 93 52 15 6 27 15 27 19 0 9 40 25 53 22 5 -1 6 1 3 6 -3 5 7 15 22 23 15 8
33 20 40 27 7 6 17 12 21 12 4 0 16 8 27 18 10 9 36 28 56 42 21 14 38 28 38
33 0 4 7 7 15 7 8 0 15 5 15 12 0 6 3 9 6 6 3 -3 18 6 33 20 16 15 43 38 60
52 78 61 97 77 127 108 18 17 35 32 39 32 3 0 19 15 36 32 16 18 29 29 29 25
0 -5 18 13 40 38 22 25 40 44 40 41 0 -3 50 45 110 107 60 61 110 115 110 119
0 4 7 8 16 8 8 0 13 4 10 8 -3 5 8 19 25 32 16 14 29 31 29 38 0 7 3 11 8 9 4
-3 13 1 20 9 7 8 11 14 9 14 -3 0 17 24 44 53 27 28 58 62 69 74 11 12 20 27
20 33 0 6 5 8 10 5 6 -3 10 -2 10 4 0 5 14 23 31 40 17 17 28 31 24 31 -3 0
11 18 32 41 21 22 42 47 46 55 5 8 22 28 38 45 16 16 29 33 29 37 0 4 12 21
28 37 15 17 47 57 71 90 24 33 49 65 55 70 6 6 24 29 40 53 16 23 33 42 38 42
5 0 7 4 4 8 -3 5 8 23 24 41 17 18 30 34 30 36 0 3 26 40 58 84 31 43 64 89
72 101 8 12 23 31 33 42 9 12 17 26 17 32 0 7 9 18 20 26 11 8 20 18 20 23 0
5 11 23 25 41 14 18 25 36 25 39 0 4 9 18 21 31 12 13 20 27 19 31 -1 4 2 11
7 14 10 7 83 109 83 115 0 2 24 40 54 84 30 45 52 83 49 86 -3 3 2 8 11 12 9
3 16 12 16 20 0 8 5 14 12 14 6 0 9 3 5 6 -3 4 5 21 18 39 14 17 25 37 25 43
0 7 4 12 8 12 5 0 16 16 25 35 9 19 21 35 27 35 5 0 10 6 10 13 0 8 20 45 45
83 24 38 45 75 45 82 0 6 4 12 8 12 5 0 19 19 31 43 37 70 56 102 62 107 4 3
16 24 28 47 11 23 25 45 31 48 6 4 8 11 5 16 -4 5 -1 9 4 9 6 0 11 7 11 15 0
8 5 15 11 15 5 0 7 5 4 10 -3 6 -1 10 4 10 6 0 11 5 11 10 0 12 52 94 63 98 4
2 7 8 7 14 0 11 51 81 63 86 4 2 7 10 7 18 0 8 5 14 12 14 6 0 9 3 6 6 -3 3 4
16 16 28 11 13 35 41 51 61 58 74 285 294 285 277 0 -3 10 4 23 15 30 27 95
63 113 63 8 0 14 4 14 8 0 9 79 30 135 37 17 2 30 4 30 5 0 1 8 3 18 5 9 2 17
0 17 -4 0 -4 14 -8 30 -9 52 -3 60 -5 60 -14 0 -5 4 -7 9 -4 10 7 61 -16 61
-27 0 -5 4 -6 8 -3 4 2 23 -9 41 -25 19 -16 38 -29 43 -29 5 0 6 -4 3 -10 -3
-5 1 -10 9 -10 9 0 16 -4 16 -8 0 -8 12 -24 50 -69 6 -7 8 -13 4 -13 -4 0 0
-8 9 -18 10 -10 14 -22 10 -25 -3 -4 -1 -7 6 -7 7 0 10 -4 7 -9 -3 -5 1 -14 8
-21 8 -6 13 -20 11 -31 -2 -10 0 -19 6 -19 5 0 9 -11 9 -25 0 -14 3 -25 8 -25
4 0 8 -15 8 -34 1 -19 5 -43 9 -53 10 -24 11 -55 1 -71 -4 -6 -3 -12 1 -12 10
0 15 -179 5 -194 -8 -14 -8 -65 0 -59 5 2 4 -7 -1 -20 -6 -14 -7 -28 -4 -31 3
-3 2 -11 -4 -18 -5 -7 -8 -69 -6 -138 3 -140 6 -177 16 -187 4 -3 7 -17 7 -30
0 -12 5 -23 12 -23 6 0 8 -3 5 -6 -7 -7 42 -97 55 -102 4 -2 8 -10 8 -18 0 -8
6 -14 14 -14 8 0 17 -9 21 -20 3 -11 9 -19 13 -19 18 3 35 -2 29 -8 -4 -3 17
-16 46 -29 76 -33 89 -37 122 -38 17 -1 36 -5 43 -9 7 -5 12 -3 12 5 0 9 3 9
10 -2 8 -12 10 -12 10 -1 0 10 3 11 13 2 8 -6 16 -9 19 -6 3 3 20 7 39 9 44 4
86 16 118 32 14 8 32 14 39 14 6 0 12 5 12 11 0 5 4 8 9 4 5 -3 16 2 25 10 8
9 18 15 21 15 6 -1 97 51 105 60 3 3 25 19 49 35 24 17 59 45 78 62 18 18 33
31 33 28 0 -2 19 14 43 35 23 22 46 40 50 40 5 0 5 5 2 10 -3 5 -1 10 4 10 10
0 116 106 172 172 11 12 31 35 45 50 13 15 24 30 24 32 0 2 13 19 30 38 42 47
160 197 160 204 0 8 54 78 63 82 4 2 7 9 7 15 0 7 11 25 25 41 14 16 25 33 25
37 0 4 6 14 13 21 7 7 28 33 47 58 72 93 116 140 130 140 5 0 10 7 10 15 0 8
3 15 8 15 4 0 21 12 38 28 17 15 43 36 58 47 16 11 40 29 55 40 56 42 204 117
261 132 8 2 22 5 30 8 8 2 17 4 20 5 3 1 10 3 15 5 6 1 12 3 15 5 3 1 23 3 45
4 23 1 46 5 52 9 17 11 153 4 153 -8 0 -5 5 -3 10 5 5 8 10 10 10 4 0 -6 13
-10 28 -10 20 0 32 7 39 23 8 17 8 21 0 16 -7 -3 -3 3 7 15 11 12 16 22 12 22
-3 0 1 16 9 36 8 20 15 45 15 55 0 11 4 19 9 19 5 0 8 8 6 18 -1 9 2 22 7 29
5 7 7 16 4 22 -3 5 -2 11 4 13 6 2 11 18 13 36 1 17 5 32 10 32 4 0 7 11 7 25
0 14 4 25 8 25 4 0 8 8 9 18 1 9 4 31 8 47 4 17 8 37 10 45 2 8 4 15 5 15 3 0
11 39 13 60 1 11 5 22 9 25 4 3 8 20 10 38 1 18 5 32 9 32 4 0 6 11 4 25 -1
14 1 25 5 25 4 0 7 6 8 13 0 6 4 28 7 47 4 19 7 41 7 48 1 6 4 12 8 12 4 0 8
106 9 236 2 224 1 235 -16 226 -10 -5 -36 -18 -58 -28 -22 -10 -42 -20 -45
-23 -3 -4 -39 -24 -80 -45 -41 -22 -81 -45 -88 -53 -8 -7 -17 -11 -22 -8 -4 3
-13 -2 -20 -10 -7 -8 -18 -15 -25 -15 -7 0 -18 -7 -25 -15 -7 -8 -15 -13 -19
-10 -4 2 -19 -7 -34 -21 -15 -13 -30 -25 -34 -26 -19 -2 -53 -22 -53 -30 0 -4
-5 -8 -11 -8 -6 0 -17 -6 -24 -12 -29 -26 -40 -34 -57 -41 -10 -3 -18 -11 -18
-17 0 -6 -4 -9 -9 -5 -6 3 -15 -4 -21 -15 -6 -11 -15 -18 -21 -15 -5 4 -9 3
-9 -2 0 -4 -17 -19 -38 -33 -20 -14 -48 -35 -62 -47 -14 -13 -28 -23 -31 -23
-3 0 -15 -8 -27 -17 -11 -10 -30 -25 -42 -33 -12 -8 -28 -21 -36 -27 -7 -7
-17 -13 -23 -13 -6 0 -11 -4 -11 -10 0 -5 -12 -16 -27 -24 -16 -8 -38 -24 -50
-36 -13 -11 -23 -18 -23 -15 0 3 -8 -3 -18 -12 -10 -10 -29 -25 -42 -33 -13
-8 -34 -25 -47 -37 -13 -13 -25 -22 -27 -20 -3 2 -58 -38 -82 -61 -8 -7 -14
-11 -14 -8 0 3 -12 -6 -26 -19 -15 -14 -33 -25 -41 -25 -8 0 -11 -4 -8 -10 3
-5 -1 -10 -9 -10 -8 0 -20 -8 -25 -17 -6 -10 -11 -14 -11 -10 0 4 -9 -1 -20
-11 -12 -11 -46 -37 -78 -58 -31 -21 -64 -44 -72 -51 -39 -33 -77 -60 -92 -66
-10 -3 -18 -11 -18 -17 0 -5 -4 -10 -10 -10 -9 0 -35 -19 -65 -47 -7 -7 -15
-9 -19 -6 -3 4 -6 0 -6 -7 0 -7 -3 -11 -6 -8 -3 3 -17 -5 -31 -18 -14 -13 -29
-24 -33 -24 -4 0 -25 -8 -46 -17 -22 -9 -41 -17 -44 -18 -3 0 -11 -4 -19 -9
-37 -23 -187 -24 -232 -1 -47 24 -120 109 -124 145 0 3 -3 10 -6 15 -18 30
-37 149 -40 250 0 24 11 143 17 180 3 22 7 48 7 58 1 9 4 17 7 17 4 0 6 10 5
23 -1 12 0 27 4 32 3 6 7 21 7 35 1 14 3 25 4 25 3 0 10 57 12 103 1 23 5 42
8 42 3 0 5 38 5 84 0 49 4 82 9 78 5 -3 7 2 3 10 -3 9 0 21 6 28 9 10 9 11 0
6 -8 -4 -11 1 -10 14 1 11 6 20 11 20 6 0 5 5 -1 11 -7 7 -8 21 -3 40 5 18 5
29 -1 29 -6 0 -7 5 -3 11 9 14 9 103 0 117 -3 6 -2 13 4 17 6 3 7 14 2 23 -4
9 -7 36 -7 60 0 23 -2 42 -5 42 -3 0 -6 24 -7 53 -2 75 -10 138 -22 168 -5 15
-7 30 -4 33 4 3 2 16 -4 29 -15 31 -38 109 -36 125 0 6 -2 12 -6 12 -4 0 -13
16 -20 35 -7 19 -17 35 -22 35 -5 0 -8 3 -7 8 8 28 -126 182 -158 182 -8 0
-14 5 -14 10 0 6 -4 10 -9 10 -5 0 -22 5 -38 12 -46 18 -114 29 -178 28 -22 0
-48 -1 -58 -1 -9 0 -15 -3 -13 -7 2 -4 -11 -7 -30 -6 -19 1 -34 -2 -34 -7 0
-5 -3 -8 -7 -7 -14 3 -68 -15 -90 -30 -13 -8 -23 -12 -23 -8 0 3 -15 -3 -32
-14 -42 -25 -43 -25 -43 5 0 14 3 25 7 25 4 0 5 9 3 20 -2 11 0 22 5 25 6 3 6
15 0 29 -6 16 -5 28 3 36 9 10 9 11 -3 5 -12 -7 -13 -6 -4 6 10 13 16 59 18
144 0 22 5 43 11 47 6 5 5 8 -3 8 -9 0 -10 5 -2 19 7 13 7 22 0 26 -6 4 -7 13
-1 23 12 22 11 712 -1 712 -11 0 -6 23 7 32 7 5 7 8 0 8 -6 0 -10 30 -10 71 0
39 -3 73 -6 75 -3 2 -5 13 -4 26 1 13 -3 26 -9 30 -7 5 -7 8 2 8 8 0 10 5 6
12 -7 12 -17 99 -18 170 -1 21 -4 38 -7 38 -4 0 -8 16 -8 35 -4 72 -5 85 -11
85 -3 0 -6 15 -6 33 -1 17 -5 48 -9 67 -10 49 -15 80 -19 115 -2 17 -5 30 -6
30 -1 0 -3 9 -5 20 -2 11 -9 45 -15 75 -6 30 -10 60 -9 65 2 6 -2 19 -8 31 -7
12 -13 38 -15 58 -1 20 -5 36 -8 36 -5 0 -10 27 -13 68 0 6 -3 12 -7 12 -4 0
-7 6 -8 13 -2 31 -11 74 -21 100 -6 15 -8 27 -5 27 4 0 1 7 -6 15 -6 8 -9 19
-6 24 4 5 2 12 -4 16 -6 4 -8 11 -5 16 4 5 2 9 -4 9 -5 0 -8 9 -6 20 2 11 -1
20 -7 20 -6 0 -9 3 -5 6 3 3 -1 23 -8 45 -8 21 -11 39 -7 39 4 0 2 4 -5 8 -6
4 -14 19 -16 32 -2 14 -7 32 -10 40 -14 38 -31 96 -29 103 1 4 -2 7 -7 7 -5 0
-11 14 -14 30 -11 53 -13 61 -23 68 -5 4 -10 16 -12 27 -1 11 -3 28 -4 37 -1
9 -6 14 -10 12 -4 -3 -8 6 -8 20 0 13 -4 26 -10 28 -5 2 -11 13 -13 25 -2 12
-6 26 -10 29 -4 4 -7 16 -7 26 0 10 -4 18 -10 18 -5 0 -10 11 -10 25 0 14 -5
25 -11 25 -6 0 -9 6 -6 14 3 8 1 16 -4 18 -6 2 -11 10 -13 18 -2 8 -9 29 -16
45 -7 17 -13 33 -12 38 1 4 -2 7 -7 7 -5 0 -12 16 -15 35 -5 22 -11 33 -18 29
-7 -5 -8 -2 -4 5 5 7 0 21 -11 33 -10 11 -17 22 -15 24 4 6 -41 98 -50 102 -4
2 -4 10 -1 18 3 8 1 14 -4 14 -5 0 -20 24 -32 53 -12 28 -27 59 -32 67 -5 8
-15 27 -22 43 -6 15 -15 27 -19 27 -4 0 -8 9 -8 19 0 11 -5 23 -11 26 -5 4
-14 17 -20 28 -9 22 -19 39 -51 88 -10 14 -15 29 -11 33 3 3 1 6 -5 6 -7 0
-12 6 -12 13 0 8 -11 27 -24 42 -14 16 -23 32 -20 36 2 4 1 9 -3 11 -11 4 -63
86 -63 98 0 5 -4 10 -10 10 -5 0 -10 7 -10 15 0 8 -3 15 -8 15 -4 0 -18 20
-31 45 -13 25 -28 45 -32 45 -5 0 -9 5 -9 10 0 12 -41 73 -52 78 -5 2 -8 10
-8 18 0 7 -9 19 -20 26 -11 7 -20 19 -20 26 0 7 -12 25 -27 40 -15 15 -27 29
-26 32 1 5 -32 51 -54 75 -7 8 -13 16 -13 19 0 7 -26 39 -56 70 -12 12 -23 27
-25 33 -5 12 -73 96 -106 130 -12 13 -19 23 -16 23 3 0 -6 10 -20 23 -15 12
-27 28 -27 35 0 7 -7 12 -15 12 -8 0 -15 4 -15 8 0 10 -61 81 -127 148 -29 30
-53 55 -53 57 0 7 -121 127 -128 127 -4 1 -20 19 -37 40 -16 21 -36 39 -43 40
-7 0 -10 5 -7 10 3 6 -1 10 -10 10 -9 0 -13 5 -10 10 3 6 1 10 -5 10 -6 0 -23
14 -37 30 -13 17 -32 30 -41 30 -8 0 -13 3 -9 6 3 3 -15 24 -41 47 -26 22 -55
49 -64 60 -10 11 -18 16 -18 11 -1 -5 -7 2 -15 16 -7 14 -15 23 -18 20 -2 -3
-25 13 -52 35 -26 22 -61 51 -77 65 -17 14 -39 33 -49 43 -10 9 -23 17 -29 17
-5 0 -10 7 -10 16 0 8 -4 13 -9 10 -5 -3 -20 5 -35 19 -14 13 -26 21 -26 17 0
-4 -5 1 -11 11 -5 9 -16 17 -23 17 -8 0 -16 7 -20 15 -3 8 -11 15 -18 15 -8 0
-20 9 -28 20 -8 11 -20 20 -27 20 -7 0 -13 5 -13 10 0 6 -5 10 -10 10 -6 0
-16 5 -23 10 -28 24 -104 78 -134 95 -18 11 -33 23 -33 27 0 4 -7 8 -15 8 -8
0 -15 5 -15 11 0 5 -4 8 -9 5 -5 -4 -11 -3 -13 1 -4 11 -116 83 -128 83 -5 0
-10 5 -10 10 0 6 -5 10 -11 10 -6 0 -23 8 -37 19 -15 10 -43 28 -63 39 -76 42
-84 47 -89 52 -6 6 -40 24 -180 97 -58 30 -109 58 -115 63 -5 4 -19 10 -30 12
-11 1 -23 8 -27 13 -4 6 -11 11 -15 11 -27 5 -53 18 -53 27 0 6 -3 8 -6 5 -3
-3 -37 9 -75 28 -38 19 -76 34 -84 34 -8 0 -15 5 -15 11 0 5 -4 8 -9 4 -5 -3
-15 1 -23 8 -7 8 -21 13 -31 11 -9 -1 -15 2 -12 6 3 5 -10 12 -30 16 -19 3
-35 10 -35 16 0 5 -4 7 -9 3 -5 -3 -15 0 -23 7 -14 13 -33 20 -55 21 -7 0 -13
4 -13 9 0 5 -4 7 -9 3 -5 -3 -12 -1 -16 5 -4 6 -10 8 -15 5 -5 -3 -11 -1 -15
5 -3 5 -15 10 -26 10 -10 0 -19 5 -19 10 0 6 -3 9 -7 8 -14 -3 -73 13 -73 21
0 4 -8 7 -17 8 -10 1 -31 7 -48 14 -30 12 -43 16 -67 22 -7 1 -19 6 -25 10 -7
5 -13 5 -13 1 0 -3 -6 -2 -12 3 -7 5 -20 9 -28 8 -8 0 -18 3 -21 8 -3 4 -16 9
-27 10 -12 1 -22 4 -22 7 0 4 -6 7 -12 7 -20 2 -185 50 -199 58 -8 6 -10 4 -4
-6 7 -11 6 -12 -6 -2 -8 6 -28 13 -44 15 -17 2 -36 9 -44 16 -7 7 -20 11 -28
8 -8 -4 -20 -3 -26 1 -7 4 -14 8 -17 8 -19 3 -99 22 -102 25 -2 1 -14 3 -28 4
-14 0 -31 5 -37 9 -7 5 -17 5 -23 2 -5 -3 -10 -2 -10 3 0 5 -11 8 -25 7 -14
-2 -25 0 -25 3 0 4 -15 8 -32 9 -71 5 -78 6 -74 12 2 3 -8 7 -22 7 -15 1 -45
4 -67 8 -22 4 -56 9 -75 12 -19 4 -46 7 -60 9 -14 2 -25 4 -25 5 0 1 -16 3
-35 5 -19 2 -55 6 -80 9 -25 4 -67 9 -95 11 -97 9 -123 13 -133 19 -6 3 -13 2
-17 -4 -4 -6 -12 -7 -18 -3 -15 9 -99 15 -239 17 -60 0 -108 5 -108 9 0 4 -10
3 -21 -4 -12 -6 -24 -7 -28 -3 -8 12 -41 14 -41 4 0 -5 -12 -6 -27 -4 -41 8
-56 8 -75 -1 -10 -4 -18 -3 -18 2 0 5 -9 9 -20 9 -11 0 -20 -3 -20 -7 0 -7
-61 -1 -69 7 -2 2 -13 -2 -24 -7 -15 -8 -22 -8 -28 2 -7 11 -9 11 -9 -1 0 -11
-2 -12 -8 -2 -5 7 -12 9 -15 5z m-5237 -2963 c-8 -5 -10 -10 -5 -10 6 0 6 -3
0 -8 -12 -8 -51 -67 -44 -67 2 0 -2 -7 -9 -15 -20 -24 -62 -91 -65 -103 -1 -6
-10 -20 -19 -31 -10 -11 -18 -26 -18 -33 0 -7 -5 -13 -12 -13 -6 0 -9 -3 -5
-6 3 -4 -7 -26 -23 -49 -16 -23 -26 -45 -23 -49 4 -3 1 -6 -5 -6 -6 0 -16 -16
-23 -35 -7 -19 -17 -35 -22 -35 -4 0 -5 -4 -2 -10 3 -5 2 -10 -3 -10 -9 0 -25
-37 -23 -52 1 -5 -3 -8 -9 -8 -5 0 -10 -9 -10 -19 0 -11 -4 -22 -9 -25 -5 -4
-26 -41 -47 -84 -21 -42 -42 -78 -46 -80 -4 -2 -5 -9 -2 -17 3 -7 -4 -23 -15
-34 -13 -13 -16 -21 -8 -21 8 0 8 -3 2 -8 -10 -6 -26 -40 -82 -168 -9 -21 -16
-42 -15 -46 1 -5 -3 -8 -10 -8 -6 0 -9 -3 -5 -6 3 -4 -1 -20 -9 -36 -8 -16
-12 -34 -8 -40 5 -7 3 -8 -6 -3 -10 6 -12 4 -7 -8 3 -10 2 -17 -3 -17 -6 0
-10 -9 -10 -19 0 -11 -4 -22 -9 -26 -5 -3 -12 -19 -16 -35 -4 -17 -10 -30 -14
-30 -4 0 -7 -8 -8 -17 -2 -31 -12 -65 -24 -79 -6 -8 -8 -14 -4 -14 4 0 2 -6
-4 -13 -6 -8 -8 -17 -4 -20 3 -4 1 -7 -4 -7 -6 0 -10 -8 -9 -17 2 -10 -6 -33
-16 -51 -11 -20 -13 -30 -6 -26 10 6 10 5 2 -7 -7 -8 -20 -42 -30 -76 -10 -35
-22 -63 -26 -63 -4 0 -5 -7 -2 -15 4 -8 3 -23 -1 -32 -5 -10 -9 -22 -11 -28
-2 -5 -10 -31 -18 -57 -8 -25 -12 -49 -9 -52 4 -3 2 -6 -3 -6 -5 0 -10 -8 -10
-17 -1 -10 -4 -29 -7 -43 -4 -14 -11 -45 -17 -69 -6 -24 -14 -49 -17 -55 -4
-6 -8 -22 -10 -36 -2 -22 -5 -38 -15 -90 -2 -8 -6 -19 -9 -25 -3 -5 -4 -20 -3
-32 0 -13 -2 -23 -5 -23 -4 0 -8 -10 -8 -22 -2 -26 -11 -83 -13 -83 -1 0 -3
-13 -5 -30 -1 -16 -4 -32 -5 -35 -5 -9 -8 -24 -9 -52 -1 -21 -6 -28 -20 -28
-11 0 -23 5 -26 10 -4 6 -10 8 -15 5 -5 -3 -11 -1 -15 5 -5 7 -143 79 -165 85
-5 2 -79 35 -150 67 -25 12 -51 21 -57 21 -7 0 -13 4 -13 9 0 4 -3 7 -7 6 -5
-1 -21 4 -38 11 -16 7 -37 14 -45 16 -8 2 -37 13 -65 25 -27 12 -59 24 -70 26
-11 2 -57 16 -102 33 -45 16 -84 27 -87 23 -3 -3 -6 -1 -6 4 0 5 -12 11 -27
12 -15 1 -31 6 -36 11 -5 5 -16 7 -23 4 -8 -3 -14 0 -14 6 0 6 -7 8 -15 5 -8
-4 -15 -2 -15 4 0 6 -8 9 -17 7 -10 -1 -22 0 -28 4 -5 3 -13 6 -17 7 -5 1 -9
2 -10 3 -2 2 -13 4 -25 7 -13 2 -33 6 -45 8 -13 3 -23 5 -23 6 0 2 -38 11 -52
12 -7 1 -13 5 -13 10 0 4 -10 6 -22 4 -13 -2 -29 1 -35 6 -7 6 -13 7 -13 3 0
-4 -8 -1 -17 6 -10 8 -14 9 -10 2 5 -7 -4 -6 -23 3 -16 9 -30 18 -30 20 0 3 5
2 10 -1 6 -3 10 -2 10 3 0 5 11 15 25 22 13 7 22 17 19 22 -3 4 0 8 7 8 6 0
22 11 35 26 13 14 24 22 24 19 0 -3 21 15 47 42 26 26 50 47 53 47 3 -1 14 7
25 17 79 72 111 99 118 99 5 0 5 5 2 10 -3 6 0 10 7 10 7 0 35 20 61 45 27 25
53 45 58 45 5 0 9 7 9 15 0 8 4 14 8 13 8 -3 55 36 150 123 17 16 32 27 32 25
0 -2 12 8 28 22 15 15 54 50 87 77 32 28 72 63 87 78 15 15 28 25 28 22 0 -6
15 7 113 100 18 16 34 29 37 30 3 0 4 3 2 8 -1 4 2 7 6 7 5 0 20 9 33 20 61
51 115 97 135 115 12 11 45 40 74 65 30 25 63 54 76 65 12 11 43 38 70 60 26
22 60 52 75 68 16 15 30 27 33 27 3 0 20 14 38 30 18 17 48 43 65 58 18 15 53
46 78 69 25 23 45 40 45 37 0 -4 44 34 96 84 18 17 36 32 40 32 3 0 19 14 34
30 15 17 31 30 35 30 4 0 22 16 41 35 18 19 36 35 40 35 3 0 18 12 34 28 16
15 52 47 81 72 29 25 68 60 88 78 19 17 40 32 46 32 5 0 3 -5 -5 -10z"/>
<path d="M23563 9503 c4 -6 -10 -9 -36 -8 -23 1 -48 -3 -54 -8 -7 -5 -13 -6
-13 -2 0 4 -7 2 -15 -5 -8 -7 -15 -10 -15 -6 0 3 -17 -3 -37 -14 -21 -11 -43
-20 -50 -20 -7 0 -13 -4 -13 -10 0 -5 -7 -10 -15 -10 -8 0 -24 -9 -34 -19 -11
-11 -22 -17 -25 -13 -3 3 -6 0 -6 -6 0 -7 -5 -12 -11 -12 -6 0 -16 -6 -24 -12
-7 -7 -34 -31 -60 -53 -51 -44 -147 -141 -192 -194 -15 -18 -38 -44 -51 -57
-13 -13 -19 -24 -15 -24 4 0 -7 -13 -24 -29 -18 -16 -30 -31 -27 -33 2 -3 -7
-17 -20 -31 -14 -15 -23 -27 -20 -27 3 0 -7 -12 -21 -27 -14 -15 -25 -36 -25
-46 0 -10 -3 -16 -7 -14 -8 5 -39 -23 -37 -33 3 -15 -10 -39 -22 -44 -8 -3
-14 -10 -14 -15 0 -6 -16 -35 -35 -65 -19 -30 -35 -60 -35 -66 0 -5 -5 -10
-11 -10 -5 0 -7 -4 -4 -10 3 -5 2 -10 -4 -10 -9 0 -21 -26 -20 -44 0 -5 -3
-12 -8 -15 -16 -11 -73 -118 -66 -124 3 -4 1 -7 -6 -7 -7 0 -9 -4 -6 -10 3 -5
2 -10 -3 -10 -8 0 -17 -17 -37 -70 -1 -3 -8 -18 -15 -35 -7 -16 -13 -33 -12
-37 1 -5 -2 -8 -7 -8 -5 0 -15 -20 -22 -45 -7 -25 -17 -45 -21 -45 -4 0 -7 -3
-6 -7 0 -5 -2 -17 -6 -28 -4 -11 -13 -33 -19 -50 -7 -16 -11 -33 -9 -37 1 -5
-3 -8 -10 -8 -6 0 -8 -3 -5 -7 4 -3 2 -12 -4 -20 -6 -7 -8 -13 -4 -13 4 0 2
-7 -5 -15 -7 -9 -10 -18 -7 -22 4 -3 -1 -12 -11 -19 -9 -7 -12 -14 -5 -14 8 0
7 -9 -3 -30 -9 -16 -12 -35 -8 -41 4 -8 3 -9 -4 -5 -7 4 -12 0 -13 -11 0 -10
-3 -27 -5 -38 -3 -11 -6 -26 -6 -32 -1 -7 -4 -13 -8 -13 -4 0 -7 -6 -8 -12 -1
-7 -4 -26 -7 -43 -4 -16 -7 -38 -8 -47 -1 -10 -5 -18 -10 -18 -4 0 -7 -6 -6
-12 2 -7 -1 -33 -6 -58 -5 -25 -8 -51 -6 -57 1 -7 -2 -13 -7 -13 -5 0 -8 -12
-6 -28 2 -17 -7 -43 -26 -72 -17 -25 -36 -54 -42 -65 -7 -10 -22 -27 -33 -37
-11 -9 -16 -17 -12 -18 4 0 -2 -11 -15 -24 -13 -13 -34 -38 -48 -56 -88 -113
-295 -320 -320 -320 -4 0 -20 -6 -35 -14 -45 -24 -69 -8 -72 48 -1 26 2 46 8
46 6 0 7 4 4 10 -3 5 1 23 10 40 8 16 13 30 9 30 -4 0 -1 6 5 13 6 8 8 17 4
20 -3 4 -1 7 5 7 7 0 12 5 12 12 0 16 121 262 132 269 5 3 10 9 10 12 0 4 2
16 5 26 3 11 4 23 3 27 -1 3 6 11 15 18 9 6 17 21 18 34 0 12 4 22 8 22 8 0
34 70 31 83 -1 4 2 7 8 7 6 0 9 3 9 8 -1 4 0 10 1 15 1 4 4 12 5 17 1 6 3 11
5 13 7 9 23 117 21 142 -1 11 -3 26 -3 33 -1 6 -5 12 -10 12 -4 0 -7 3 -6 8
10 49 -142 160 -227 165 -19 1 -35 5 -35 9 0 8 -47 4 -56 -5 -3 -3 -7 -23 -9
-44 -4 -36 -7 -51 -21 -105 -3 -13 -6 -29 -6 -35 -1 -7 -5 -13 -10 -13 -4 0
-8 -6 -8 -13 0 -12 -14 -51 -55 -152 -5 -11 -7 -23 -7 -27 1 -5 -3 -8 -9 -8
-5 0 -8 -4 -4 -9 3 -5 0 -13 -6 -16 -5 -4 -8 -13 -5 -21 3 -8 1 -14 -5 -14 -6
0 -9 -6 -6 -14 3 -8 1 -16 -5 -18 -10 -4 -17 -23 -20 -55 -1 -7 -6 -13 -11
-13 -5 0 -7 -9 -4 -20 3 -11 1 -20 -4 -20 -5 0 -9 -9 -9 -20 0 -11 -5 -20 -12
-20 -6 0 -9 -3 -6 -6 4 -3 2 -20 -3 -37 -23 -74 -42 -163 -41 -189 0 -10 -4
-18 -10 -18 -7 0 -7 -4 1 -13 6 -8 8 -17 4 -21 -9 -9 -11 -176 -3 -176 3 0 7
-12 8 -27 3 -36 27 -105 34 -98 3 3 8 -4 12 -17 6 -25 79 -75 102 -70 8 2 14
-1 14 -6 0 -9 35 -7 85 3 17 4 35 8 40 9 21 5 111 55 134 75 13 12 27 21 31
21 3 0 30 23 58 50 29 28 54 50 57 50 3 0 14 9 25 20 11 11 17 20 14 20 -3 0
8 12 25 26 17 14 29 29 26 33 -2 5 7 13 20 19 14 7 25 16 25 21 0 5 14 25 30
43 17 18 30 38 30 46 0 7 5 10 10 7 6 -3 10 -2 10 4 0 5 14 25 30 43 17 18 30
38 30 46 0 7 4 11 9 8 5 -3 8 -36 7 -72 -1 -36 2 -68 6 -70 4 -2 5 -13 3 -24
-2 -11 1 -20 6 -20 6 0 8 -4 5 -9 -3 -4 1 -33 10 -62 8 -30 15 -60 16 -66 1
-7 5 -13 10 -13 5 0 6 -4 3 -10 -3 -5 -1 -10 5 -10 6 0 8 -4 5 -10 -3 -5 -1
-10 4 -10 6 0 11 -5 11 -10 0 -12 11 -26 58 -75 17 -19 32 -32 32 -28 0 3 8
-1 18 -10 10 -10 22 -14 25 -10 4 3 7 1 7 -5 0 -7 3 -11 8 -10 4 0 14 -1 22
-5 47 -17 99 -24 111 -13 8 8 13 8 16 -2 3 -6 10 -9 16 -5 7 4 23 9 37 11 13
2 30 7 36 13 6 5 14 6 17 2 4 -3 7 -1 7 6 0 7 5 9 10 6 6 -3 10 -1 10 5 0 6 4
9 9 6 5 -3 14 1 21 9 7 8 16 12 21 9 5 -3 9 0 9 5 0 6 7 11 15 11 8 0 15 5 15
10 0 6 7 10 16 10 8 0 13 4 9 9 -3 5 4 12 15 16 11 3 20 11 20 17 0 6 2 9 5 6
7 -7 135 115 135 129 0 5 11 16 25 23 14 7 23 15 21 18 -3 2 6 15 20 29 13 13
24 28 24 34 0 6 5 7 10 4 6 -3 10 1 10 9 0 8 10 22 22 30 12 9 18 16 13 16 -6
0 -1 7 9 15 11 8 16 15 11 15 -5 0 1 7 13 16 12 8 22 21 22 28 0 7 9 21 20 31
11 10 20 22 20 27 0 10 14 28 44 58 11 11 16 20 12 20 -4 0 0 7 8 16 9 8 16
22 16 30 0 8 4 14 8 14 5 0 15 12 23 28 8 15 18 32 22 37 15 19 51 80 52 88 0
4 7 12 15 17 8 5 11 10 5 10 -7 0 -7 3 0 8 17 12 59 96 44 87 -11 -6 -11 -5
-3 4 15 16 -4 58 -27 64 -19 5 -41 -5 -41 -19 -1 -18 -17 -52 -28 -59 -5 -3
-8 -11 -5 -16 4 -5 2 -9 -3 -9 -5 0 -15 -13 -22 -30 -7 -16 -17 -30 -22 -30
-6 0 -8 -6 -5 -14 3 -8 2 -16 -2 -18 -10 -4 -106 -152 -102 -157 1 -2 -1 -7
-7 -10 -5 -3 -33 -40 -62 -81 -29 -41 -57 -76 -62 -78 -4 -2 -8 -10 -8 -17 0
-7 -7 -15 -15 -19 -8 -3 -15 -10 -15 -15 0 -22 -227 -256 -287 -296 -24 -15
-43 -32 -43 -38 0 -6 -3 -8 -6 -4 -3 3 -25 -3 -47 -12 -35 -15 -75 -19 -97
-11 -3 1 -8 2 -12 1 -5 0 -8 3 -8 7 0 5 -9 18 -20 29 -11 12 -22 36 -25 54 -3
17 -10 39 -15 49 -6 11 -5 21 1 27 7 7 7 13 1 17 -6 3 -7 20 -2 40 4 19 5 38
2 41 -11 11 -10 35 1 35 7 0 5 5 -3 10 -8 5 -10 10 -5 10 6 0 10 19 11 43 0
37 4 73 17 168 2 14 8 32 12 39 6 9 4 11 -5 5 -10 -6 -11 -4 -4 6 4 8 10 23
12 34 4 24 10 48 12 55 1 3 2 8 1 13 -1 4 5 23 14 43 9 21 10 32 3 28 -7 -5
-8 -2 -3 6 7 11 38 113 48 156 3 12 32 44 40 44 3 0 24 18 47 40 23 22 45 40
48 40 4 0 33 25 66 55 32 30 63 55 68 55 5 0 7 3 5 8 -4 7 28 42 39 41 4 0
229 217 267 259 7 7 28 30 47 51 19 21 55 61 80 90 25 29 60 68 78 87 17 19
32 37 32 40 0 3 6 11 13 18 6 7 26 30 42 51 17 21 40 50 53 66 12 15 22 30 22
33 0 8 16 28 44 56 11 11 16 20 10 20 -5 0 -4 4 1 8 15 10 50 66 47 75 -1 4 3
7 8 7 6 0 10 5 10 10 0 12 41 73 53 78 4 2 5 7 2 12 -3 5 2 16 11 24 8 9 13
16 9 16 -3 0 2 15 12 33 9 17 18 34 18 37 10 38 18 60 24 60 4 0 7 8 8 18 4
47 10 80 17 90 10 17 9 117 -2 138 -5 11 -7 25 -5 32 3 6 -1 12 -8 12 -7 0 -9
3 -6 6 4 4 -10 23 -31 44 -43 42 -68 55 -127 63 -12 2 -27 7 -34 12 -9 5 -12
4 -8 -2z m12 -103 c3 -5 12 -7 20 -3 8 3 15 1 15 -5 0 -6 10 -8 22 -4 13 3 19
1 15 -5 -4 -6 0 -13 8 -17 8 -3 15 -12 15 -20 0 -8 4 -16 9 -18 8 -3 17 -64
11 -78 -2 -5 -8 -52 -12 -92 -1 -10 -6 -18 -10 -18 -4 0 -7 -3 -7 -7 1 -5 0
-11 -1 -15 -1 -5 -3 -11 -4 -15 -1 -5 -9 -24 -18 -43 -8 -19 -16 -39 -18 -45
-2 -5 -14 -27 -26 -47 -13 -21 -24 -41 -24 -45 0 -9 -52 -86 -63 -94 -5 -3 -8
-9 -8 -13 2 -11 -51 -86 -61 -86 -5 0 -7 -4 -4 -8 3 -5 -6 -20 -20 -35 -14
-15 -22 -27 -19 -27 3 0 -3 -8 -12 -19 -10 -10 -29 -33 -43 -51 -42 -55 -84
-104 -105 -122 -11 -10 -16 -17 -10 -18 5 0 -1 -7 -13 -16 -12 -8 -20 -20 -17
-25 4 -5 -1 -9 -9 -9 -9 0 -16 -4 -16 -8 0 -4 -38 -48 -85 -97 -47 -49 -85
-93 -85 -98 0 -4 -4 -6 -9 -2 -5 3 -12 -4 -16 -15 -3 -11 -13 -20 -21 -20 -8
0 -12 -4 -9 -10 3 -5 2 -10 -4 -10 -5 0 -42 -31 -81 -70 -39 -38 -73 -70 -76
-70 -3 0 -25 -21 -49 -46 -25 -25 -45 -43 -45 -40 0 3 -14 -8 -30 -24 -17 -17
-32 -30 -35 -30 -7 0 6 54 16 66 5 6 6 14 2 17 -3 4 -1 7 5 7 6 0 9 7 6 15 -4
8 -1 15 5 15 6 0 8 7 5 15 -4 8 -1 15 5 15 6 0 10 3 10 8 -1 4 0 10 1 15 1 4
3 10 4 15 2 9 25 69 42 109 8 17 14 36 14 41 0 6 11 31 24 56 14 26 22 46 19
46 -3 0 0 7 7 15 7 8 10 15 6 15 -3 0 7 24 23 53 15 28 29 54 29 57 8 29 28
70 33 70 7 0 23 50 21 63 -1 4 3 7 8 7 6 0 10 9 10 21 0 11 3 18 8 16 4 -3 14
10 23 29 9 18 12 31 7 27 -9 -5 20 46 32 57 6 6 32 64 31 68 -1 1 5 10 14 18
8 9 13 20 10 25 -4 5 -1 9 5 9 6 0 16 12 23 28 6 15 15 32 20 37 22 30 56 86
62 104 3 12 11 19 16 16 5 -4 9 0 9 7 0 8 13 29 30 48 16 19 29 39 30 43 0 5
6 14 13 21 25 26 62 71 62 76 1 6 95 99 95 94 0 -2 9 4 19 14 40 36 51 43 81
49 17 3 33 10 36 14 7 12 21 11 29 -1z"/>
<path d="M20025 8007 c-4 -18 -9 -38 -11 -46 -4 -18 -44 -122 -55 -143 -5 -10
-9 -25 -9 -33 0 -8 -4 -15 -10 -15 -5 0 -10 -7 -10 -15 0 -9 -9 -35 -20 -57
-11 -23 -18 -43 -15 -46 2 -2 -3 -11 -11 -19 -8 -8 -12 -19 -9 -24 4 -5 1 -9
-4 -9 -6 0 -11 -9 -11 -20 0 -11 -4 -20 -8 -20 -5 0 -9 -6 -9 -12 0 -7 -8 -31
-18 -53 -10 -22 -17 -44 -16 -49 1 -5 -2 -12 -6 -15 -7 -5 -53 -132 -59 -163
-1 -5 -3 -10 -4 -13 -1 -3 -3 -9 -4 -14 0 -5 -4 -12 -8 -16 -4 -4 -4 -13 -1
-21 3 -8 1 -14 -5 -14 -5 0 -8 -13 -7 -30 1 -16 0 -30 -4 -30 -4 0 -5 -28 -4
-62 5 -92 8 -116 16 -124 4 -4 7 -15 7 -25 0 -37 112 -181 128 -164 2 2 11 -2
19 -10 8 -8 23 -15 34 -15 10 0 19 -3 19 -7 0 -10 101 -18 178 -14 14 1 21 5
16 12 -5 8 -1 8 14 0 13 -7 22 -7 24 -1 2 5 13 11 25 13 32 5 142 75 190 123
24 22 43 39 43 36 0 -2 7 1 15 8 9 7 14 15 12 17 -3 2 17 25 44 52 26 27 47
50 45 52 -1 2 6 12 17 22 19 19 19 18 12 -5 -4 -12 -16 -39 -26 -59 -10 -20
-15 -39 -12 -43 4 -3 2 -6 -4 -6 -9 0 -17 -16 -23 -48 0 -4 -8 -17 -16 -30 -9
-13 -17 -33 -19 -45 -3 -11 -8 -23 -12 -26 -5 -3 -9 -13 -11 -21 -2 -8 -31
-71 -65 -140 -33 -69 -60 -128 -59 -132 1 -5 -3 -8 -8 -8 -6 0 -10 -9 -10 -19
0 -11 -4 -21 -8 -23 -4 -1 -17 -21 -29 -43 -14 -27 -26 -39 -39 -38 -11 1 -41
5 -69 9 -27 3 -60 7 -72 7 -13 1 -23 6 -23 12 0 5 -4 4 -9 -4 -8 -12 -12 -12
-24 -2 -10 8 -17 9 -22 1 -4 -6 -13 -7 -23 -2 -20 10 -33 10 -51 -2 -8 -5 -16
-4 -21 4 -10 15 -21 15 -31 -2 -6 -9 -9 -9 -9 -1 0 7 -9 10 -22 7 -13 -3 -40
-6 -60 -7 -21 -1 -38 -5 -38 -10 0 -5 -7 -4 -15 3 -8 7 -15 8 -15 3 0 -5 -26
-14 -57 -20 -82 -16 -87 -17 -94 -26 -3 -5 -12 -10 -20 -11 -42 -8 -69 -19
-69 -28 0 -5 -4 -7 -8 -4 -5 3 -18 -2 -28 -12 -11 -9 -26 -18 -34 -20 -8 -2
-16 -8 -18 -13 -2 -5 -8 -9 -13 -9 -11 0 -21 -7 -93 -75 -87 -82 -169 -229
-160 -287 1 -10 -1 -18 -5 -18 -9 0 -7 -111 2 -126 3 -6 8 -21 11 -35 12 -65
83 -157 134 -173 12 -4 22 -11 22 -14 0 -4 12 -9 27 -10 15 -1 29 -6 32 -10 3
-4 13 -7 21 -7 8 1 30 -2 48 -6 21 -5 32 -3 32 5 0 7 4 6 9 -3 7 -11 9 -11 14
0 5 12 7 12 15 0 6 -8 12 -9 16 -3 3 6 14 9 24 7 9 -1 28 2 42 8 14 5 32 10
40 11 25 3 94 28 108 39 8 6 24 13 35 14 12 2 24 8 25 13 2 6 10 10 18 10 8 0
14 5 14 11 0 5 5 7 10 4 6 -3 13 1 16 9 3 9 10 13 15 10 5 -3 9 0 9 6 0 6 4 9
9 6 5 -3 14 1 21 9 7 8 16 15 21 15 5 0 17 8 27 18 33 30 62 52 62 46 0 -4 9
5 20 19 11 14 29 29 40 32 11 4 18 11 15 16 -4 5 -2 9 3 9 5 0 28 18 52 40 24
22 48 40 53 40 6 0 8 2 5 6 -3 3 24 35 61 73 36 37 84 89 106 116 22 27 48 55
58 64 9 8 17 19 17 24 0 4 10 19 23 33 20 21 27 23 49 15 14 -5 29 -7 32 -4 3
4 6 0 6 -7 0 -7 3 -11 6 -8 3 4 34 -4 69 -17 35 -12 66 -20 69 -17 3 3 6 0 6
-7 0 -7 6 -11 13 -8 7 3 21 -1 31 -9 11 -7 22 -11 27 -9 4 3 10 1 14 -5 3 -5
15 -10 26 -10 10 0 19 -5 19 -11 0 -5 4 -8 8 -5 5 3 21 -2 36 -9 16 -8 32 -12
37 -9 5 3 9 0 9 -5 0 -6 3 -10 8 -9 8 1 29 -6 79 -28 17 -8 45 -17 62 -20 17
-4 31 -10 31 -15 0 -5 9 -9 20 -9 18 0 57 -17 70 -30 3 -3 16 -7 30 -8 14 -2
30 -8 36 -13 6 -5 14 -6 17 -2 4 3 7 1 7 -6 0 -7 5 -9 10 -6 6 4 16 2 23 -3
14 -11 89 -37 100 -34 4 1 7 -3 7 -10 0 -6 3 -9 6 -5 3 3 25 -1 47 -10 23 -8
47 -16 52 -17 6 -2 18 -6 27 -10 9 -4 22 -9 30 -10 7 -2 21 -6 31 -11 10 -4
21 -5 24 -2 3 4 15 1 27 -6 11 -6 28 -13 36 -14 8 -1 29 -5 45 -8 17 -4 39 -8
50 -10 11 -1 21 -4 23 -5 1 -1 10 -3 20 -4 9 -1 22 -5 29 -9 6 -4 15 -3 18 3
5 8 11 8 20 0 17 -14 285 -12 303 2 8 7 12 7 12 -1 0 -7 8 -8 23 -2 12 4 30 7
40 6 9 -2 17 0 17 4 0 4 10 8 23 9 32 3 48 7 80 20 16 7 32 12 36 12 13 0 75
32 94 48 9 8 17 11 17 7 0 -4 8 2 19 13 10 12 22 22 26 22 20 0 101 112 130
180 11 25 24 48 30 52 6 5 5 8 -4 8 -11 0 -11 3 -1 15 7 8 9 15 5 15 -4 0 -3
6 2 13 5 6 9 21 9 32 -1 11 4 23 9 27 6 5 5 8 -3 8 -8 0 -26 -12 -41 -27 -35
-37 -110 -102 -119 -104 -22 -5 -31 -12 -26 -20 3 -5 -3 -6 -13 -2 -10 3 -15
2 -11 -2 6 -6 -56 -42 -77 -45 -3 0 -21 -9 -41 -20 -19 -11 -39 -18 -45 -15
-5 4 -9 1 -9 -6 0 -7 -3 -9 -7 -6 -3 4 -12 2 -20 -5 -7 -6 -16 -8 -19 -5 -3 3
-22 0 -42 -7 -21 -7 -54 -13 -75 -12 -20 1 -37 -1 -37 -4 0 -7 -158 -3 -176 4
-8 3 -14 0 -14 -7 0 -7 -3 -8 -8 -2 -4 6 -26 10 -49 10 -24 0 -43 2 -43 5 0 3
-15 5 -32 5 -18 0 -41 3 -50 8 -12 5 -18 4 -18 -5 0 -10 -2 -10 -9 0 -4 7 -28
15 -52 17 -24 2 -44 4 -44 5 0 2 -9 4 -20 5 -11 2 -33 6 -50 10 -16 4 -38 7
-47 7 -10 -1 -20 3 -23 9 -4 5 -17 9 -31 9 -14 0 -35 5 -46 11 -15 8 -19 8
-14 0 5 -8 1 -8 -16 -2 -38 15 -62 24 -78 27 -8 1 -22 4 -30 7 -8 2 -33 7 -55
12 -22 4 -46 12 -52 18 -7 5 -13 7 -13 3 0 -3 -11 -1 -26 4 -14 6 -39 12 -57
15 -17 4 -37 11 -44 17 -7 6 -13 7 -13 4 0 -4 -9 -2 -20 4 -15 8 -20 8 -20 -2
0 -9 -3 -9 -8 -2 -11 17 -102 43 -102 30 0 -7 -3 -6 -8 2 -5 7 -17 14 -28 17
-10 2 -34 8 -51 14 -18 5 -33 7 -33 3 0 -3 -5 -1 -12 6 -7 7 -22 12 -34 12
-13 0 -25 4 -29 10 -3 5 -12 7 -19 4 -8 -3 -17 -1 -20 5 -4 6 -13 8 -21 4 -8
-3 -15 -1 -15 4 0 7 -22 13 -67 16 -7 0 -13 4 -13 9 0 5 -4 7 -9 4 -18 -12
-18 21 0 35 10 7 19 18 19 24 0 6 13 25 29 42 16 18 26 34 23 37 -3 3 0 6 7 6
7 0 9 5 6 10 -3 6 -1 10 4 10 6 0 11 6 11 13 0 8 9 22 20 32 11 10 20 22 20
26 0 8 40 73 59 95 6 7 7 15 4 18 -4 3 -1 6 5 6 7 0 12 6 12 14 0 7 7 19 15
26 8 7 15 20 15 30 0 10 7 20 15 24 8 3 14 9 13 13 -3 13 24 63 34 63 5 0 6 5
3 10 -3 6 -1 10 4 10 6 0 10 3 9 8 -1 4 29 69 66 145 37 75 64 142 60 149 -4
6 -3 8 3 5 9 -6 13 1 22 38 1 3 10 25 21 50 11 25 16 45 12 45 -4 0 -2 4 3 8
12 8 50 121 46 140 -1 6 2 12 7 12 5 0 9 10 8 23 -1 12 2 24 6 27 4 3 8 20 10
38 1 18 6 32 11 32 5 0 3 8 -4 17 -8 9 -9 14 -3 10 8 -5 12 8 13 41 0 26 2 58
4 72 2 14 -2 44 -9 68 -7 23 -9 42 -6 42 4 0 -1 5 -11 11 -9 6 -15 14 -12 19
7 11 -72 90 -90 90 -8 0 -15 4 -15 10 0 11 -99 42 -111 34 -5 -3 -9 0 -9 6 0
6 -4 8 -10 5 -5 -3 -10 -2 -10 4 0 7 -8 7 -25 -1 -13 -6 -23 -14 -23 -17 4
-14 -26 -121 -33 -121 -5 0 -6 -7 -3 -15 4 -8 1 -15 -6 -15 -6 0 -9 -4 -6 -8
6 -10 -41 -151 -58 -171 -9 -12 -8 -13 4 -6 13 8 13 7 0 -9 -8 -10 -16 -27
-17 -39 -2 -12 -9 -24 -15 -28 -6 -4 -12 -16 -13 -27 -1 -11 -7 -27 -14 -36
-8 -9 -11 -16 -7 -16 4 0 -5 -20 -19 -45 -14 -25 -25 -52 -25 -60 0 -8 -4 -15
-10 -15 -5 0 -10 -6 -10 -14 0 -7 -7 -19 -15 -26 -8 -7 -13 -16 -10 -20 3 -5
-2 -16 -11 -24 -8 -9 -13 -16 -10 -16 4 0 -12 -26 -34 -59 -22 -32 -40 -61
-40 -65 0 -3 -8 -14 -17 -24 -10 -10 -25 -29 -33 -42 -13 -21 -140 -149 -180
-182 -20 -17 -73 -42 -82 -40 -5 1 -8 -3 -8 -9 0 -5 -4 -7 -10 -4 -5 3 -10 2
-10 -3 0 -9 -3 -10 -70 -13 -25 -1 -46 3 -48 10 -2 6 -9 8 -15 4 -6 -4 -8 0
-4 10 4 10 2 17 -4 17 -6 0 -9 7 -5 15 3 8 2 15 -3 15 -6 0 -7 56 0 70 1 3 3
10 4 15 2 6 4 13 5 18 1 4 3 10 5 15 5 18 18 51 41 99 13 28 24 57 24 62 0 6
5 11 12 11 6 0 8 3 5 7 -4 3 0 14 9 24 8 9 16 23 18 31 1 7 6 20 11 28 5 8 10
18 10 22 0 4 7 15 15 25 19 22 19 22 26 51 4 12 10 22 15 22 5 0 9 9 9 20 0
11 5 20 11 20 5 0 7 5 4 10 -3 6 -1 10 6 10 7 0 9 3 6 7 -4 3 -1 13 7 22 8 9
15 18 16 21 5 29 14 50 19 50 4 0 7 10 8 21 1 12 9 29 17 38 9 10 13 21 10 24
-4 4 -2 12 3 19 6 7 9 21 8 31 -2 9 0 17 4 17 4 0 7 10 6 23 -1 12 2 30 6 39
6 11 5 18 -4 21 -9 4 -9 6 1 6 8 1 10 6 6 13 -4 7 -9 24 -10 37 -2 14 -8 27
-14 29 -5 2 -8 7 -5 12 3 4 -2 13 -10 20 -8 7 -15 18 -15 24 0 6 -17 22 -38
36 -20 14 -43 31 -50 37 -7 7 -20 14 -28 14 -31 3 -35 4 -42 14 -4 6 -16 11
-27 12 -11 2 -32 4 -46 7 -23 3 -28 0 -34 -27z m-10 -1724 c99 -3 156 -10 168
-22 6 -6 7 -11 1 -11 -5 0 -18 -17 -29 -37 -11 -21 -26 -42 -33 -46 -7 -5 -10
-12 -7 -18 4 -5 1 -9 -4 -9 -6 0 -11 -7 -11 -15 0 -9 -7 -18 -15 -21 -8 -4
-12 -10 -9 -15 3 -5 0 -9 -5 -9 -6 0 -11 -7 -11 -15 0 -8 -4 -15 -8 -15 -4 0
-16 -15 -27 -32 -22 -37 -29 -47 -67 -89 -15 -16 -24 -29 -20 -29 4 0 -1 -5
-11 -11 -9 -6 -15 -14 -12 -20 4 -5 -2 -9 -11 -9 -10 0 -15 -3 -11 -6 9 -9
-151 -164 -170 -164 -9 0 -13 -3 -10 -7 6 -6 -54 -53 -68 -53 -4 0 -20 -9 -36
-21 -16 -11 -33 -17 -39 -14 -5 3 -10 2 -10 -3 0 -5 -6 -9 -12 -10 -39 -3 -58
-7 -58 -12 0 -3 -17 -4 -37 -2 -21 1 -45 3 -53 4 -8 0 -19 4 -25 8 -5 4 -21
10 -35 14 -48 12 -105 79 -115 136 -3 18 -8 37 -11 42 -3 4 1 8 8 8 10 0 10 2
1 8 -13 8 -6 92 8 92 4 0 6 9 4 20 -2 11 0 20 4 20 8 0 19 27 17 40 -1 3 15
26 34 50 57 73 134 142 180 163 14 6 27 14 30 17 8 9 130 60 130 54 0 -2 10 1
23 8 12 7 29 13 37 14 8 1 33 5 55 9 22 3 73 7 112 9 40 1 76 5 80 9 3 4 9 4
12 0 3 -5 33 -9 66 -10z"/>
</g>
</svg>
